<?xml version="1.0" standalone="no"?>
<!DOCTYPE svg PUBLIC "-//W3C//DTD SVG 20010904//EN"
 "http://www.w3.org/TR/2001/REC-SVG-20010904/DTD/svg10.dtd">
<svg version="1.0" xmlns="http://www.w3.org/2000/svg"
 width="700.000000pt" height="700.000000pt" viewBox="0 0 700.000000 700.000000"
 preserveAspectRatio="xMidYMid meet">
<metadata>
Created by potrace 1.14, written by Peter Selinger 2001-2017
</metadata>
<g transform="translate(0.000000,700.000000) scale(0.100000,-0.100000)"
fill="#000000" stroke="none">
<path d="M1472 6969 c-23 -16 -45 -29 -47 -29 -4 0 -76 -49 -145 -98 -160
-114 -395 -338 -523 -499 -318 -400 -523 -881 -582 -1363 -22 -175 -27 -485
-11 -620 11 -89 16 -126 27 -185 5 -33 13 -73 15 -90 47 -265 171 -585 335
-864 41 -71 151 -227 217 -311 95 -118 299 -324 412 -414 88 -70 302 -217 333
-229 9 -3 17 -17 18 -29 3 -105 -1 -550 -5 -556 -3 -5 -101 -8 -218 -7 -117 0
-218 0 -223 -2 -7 -2 -10 -288 -10 -836 l0 -832 228 -3 227 -2 1 22 c0 13 0
218 1 456 0 395 1 432 16 433 10 0 24 2 32 3 8 2 44 6 80 10 81 8 143 24 243
65 43 17 80 31 82 31 2 0 4 -219 4 -487 0 -269 0 -498 1 -511 l0 -22 227 2
228 3 0 453 c0 298 3 452 10 453 5 1 26 2 45 4 296 21 545 155 722 389 60 80
125 202 148 282 l12 41 72 -14 c67 -13 132 -26 376 -72 58 -11 191 -36 295
-56 105 -20 204 -39 220 -42 17 -3 37 -7 45 -8 8 -2 20 -4 25 -4 7 -1 10 -246
9 -716 l-2 -715 229 0 229 0 0 675 0 675 98 0 c117 1 183 6 281 26 40 8 74 14
75 14 1 0 2 -307 1 -683 0 -375 1 -688 3 -694 3 -10 58 -13 228 -13 172 0 224
3 225 13 0 6 1 371 1 810 l1 798 77 75 c175 170 303 410 349 654 6 30 14 69
17 85 5 22 16 728 14 942 0 17 8 23 43 28 23 4 49 8 57 10 8 1 38 6 65 10 28
5 52 9 55 10 8 2 92 16 125 21 17 2 41 6 55 9 14 3 41 7 60 10 19 3 59 10 89
15 30 6 56 10 58 10 2 0 3 103 3 228 l-1 228 -301 0 c-165 -1 -302 2 -305 7
-2 4 -4 50 -5 103 0 160 -34 256 -124 354 -29 31 -80 71 -112 88 -52 28 -160
58 -202 57 -13 0 -15 -40 -16 -298 0 -163 -4 -300 -7 -304 -4 -3 -72 -7 -152
-7 l-145 -1 -1 35 c0 19 -1 64 -1 100 0 78 -20 165 -55 234 -32 63 -122 153
-190 189 -53 28 -183 59 -201 48 -7 -4 -10 -255 -11 -716 0 -390 0 -730 0
-755 l-1 -46 -1747 1 -1748 0 -1 1973 c-1 1085 -3 1975 -5 1977 -2 2 -23 -10
-47 -26z"/>
</g>
</svg>
